<?xml version="1.0" encoding="utf-8"?>
<svg id="Ebene_1" data-name="Ebene 1" xmlns="http://www.w3.org/2000/svg" viewBox="0 0 300 103.34">
  <defs>
    <style>
      .cls-1 {
        fill: #ef3e33;
      }

      .cls-2 {
        fill: #004fa3;
      }

      .cls-3 {
        fill: #fff;
      }
    </style>
  </defs>
  <g>
    <g>
      <path class="cls-1" d="M242.62,105.06a3.34,3.34,0,0,1,3.31-3,2.94,2.94,0,0,1,3,3Zm8.53,9.3a10.45,10.45,0,0,1-3.11.42c-4.53,0-5.59-4.53-5.59-6.91V107h9.07v-.76c0-3.44-1.79-6-5.49-6-4.2,0-6.16,3-6.16,7.71,0,5.82,2.82,8.76,7.68,8.76a12.51,12.51,0,0,0,3.6-.46Zm-18.75,2h2.25V102.45h4.53v-1.89h-4.53V98.84c0-2.11.69-3.57,3.31-3.57a6.8,6.8,0,0,1,2.28.43v-2a11.89,11.89,0,0,0-2.68-.29c-3.93,0-5.16,2.41-5.16,5v2.18h-2.65v1.89h2.65Zm-8.7-19.85h3v-3h-3Zm.37,19.85h2.25V100.56h-2.25Zm-13.5,0h10.75v-2.15h-8.17V93.49h-2.58Zm-18.75,0h2.25v-6.52c0-4.23,1.75-7.18,5.33-7.18V100.2a5.27,5.27,0,0,0-5.26,3.41h-.07v-3h-2.25Zm-14.25-7.88c0-3.93,1.29-6.35,3.83-6.35s3.91,2.42,3.91,6.35-1.33,6.35-3.91,6.35-3.83-2.38-3.83-6.35m3.83,8.24c4.67,0,6.49-3.6,6.49-8.2s-1.82-8.27-6.49-8.27-6.41,3.67-6.41,8.27,1.78,8.2,6.41,8.2m-14.15-.36h2.25V102.45H174v-1.89H169.5V98.84c0-2.11.69-3.57,3.31-3.57a6.8,6.8,0,0,1,2.28.43v-2a12,12,0,0,0-2.68-.29c-3.94,0-5.16,2.41-5.16,5v2.18H164.6v1.89h2.65Zm-17.6-9.69c-1.25-.67-2.84-1.19-2.84-2.48,0-1.13,1.26-2.06,3.18-2.06a11.26,11.26,0,0,1,3.67.73v-2.08a14.93,14.93,0,0,0-3.71-.53c-3.5,0-5.39,1.62-5.39,4.17s2.12,3.44,3.57,4.26l1.43.76c.92.53,2.84,1.23,2.84,2.85,0,1.82-1.65,2.54-3.84,2.54a13.62,13.62,0,0,1-4.07-.82V116a14.5,14.5,0,0,0,4.3.66c3.68,0,5.86-1.62,5.86-4.76,0-2.71-2-3.64-3.67-4.5Zm-16.53-1.56a3.34,3.34,0,0,1,3.31-3,2.94,2.94,0,0,1,3,3Zm8.53,9.3a10.45,10.45,0,0,1-3.11.42c-4.53,0-5.59-4.53-5.59-6.91V107H142v-.76c0-3.44-1.79-6-5.49-6-4.2,0-6.15,3-6.15,7.71,0,5.82,2.81,8.76,7.67,8.76a12.51,12.51,0,0,0,3.6-.46Zm-18.52-7.74c-1.25-.67-2.84-1.19-2.84-2.48,0-1.13,1.25-2.06,3.17-2.06a11.2,11.2,0,0,1,3.67.73v-2.08a14.75,14.75,0,0,0-3.7-.53c-3.51,0-5.39,1.62-5.39,4.17s2.12,3.44,3.57,4.26l1.42.76c.93.53,2.85,1.23,2.85,2.85,0,1.82-1.66,2.54-3.84,2.54A13.62,13.62,0,0,1,118,114V116a14.5,14.5,0,0,0,4.3.66c3.67,0,5.86-1.62,5.86-4.76,0-2.71-2-3.64-3.68-4.5Zm-10.94,2.54a6,6,0,0,1-.6,3.18,4.15,4.15,0,0,1-3.67,2.44,2.15,2.15,0,0,1-2.22-2.28c0-2.68,3.51-3.34,5.16-3.34Zm.06,7.15h2.18v-11c0-2-.39-5.06-5.29-5.06-4.3,0-5.62,2.41-5.65,4.4H106c.17-1.23.66-2.52,3.21-2.52a2.65,2.65,0,0,1,2.88,2.19,28,28,0,0,1,.1,3,8,8,0,0,1-1.56.1c-2.74,0-7.51,1.22-7.51,4.89,0,2.81,1.66,4.4,4.24,4.4a5.47,5.47,0,0,0,4.83-2.45h.06Zm-12.67-12.9h-7.8v2.15H97v7.7a6.63,6.63,0,0,1-4.2,1.26c-5.35,0-6.11-6-6.11-10.38,0-4.14,1.09-8.87,5.72-8.87a4.13,4.13,0,0,1,4.4,4.43h2.91c0-3.8-2.82-6.58-7.35-6.58-6.25,0-8.5,5.19-8.5,11,0,6.61,1.92,12.53,9.13,12.53a10.69,10.69,0,0,0,6.58-2.18Z" transform="translate(-10 -13.33)"/>
      <path class="cls-2" d="M224.48,51.89a1.51,1.51,0,0,1,1.72-1.64H230c3.55,0,6.44,1.57,6.45,5.26s-2.9,5.3-6.45,5.29H224.5ZM208.64,80.6H224.5V65.28h4.83l8.9,15.31h16.25l-11-16c4.85-1.14,8.47-4,8.27-9.26-.16-4.38-3.16-8-10.15-9.31a40.26,40.26,0,0,0-7.23-.51H213.66c-3.15,0-5,1.81-5,5Zm-3.89-30.19V45.5h-27.5c-3.16,0-5,1.79-5,5V80.59h32.68V75.74H188.14V65.21h16.24V60.33H188.14V52.05a1.5,1.5,0,0,1,1.71-1.64Zm-36.11-4.92H152.32c-3.77,0-6.52.07-9.27.93-3.9,1.22-6.36,3.88-6.56,7.22-.24,4.23,2.76,7.48,8.47,10.38,1.43.73,3,1.63,4.5,2.43,3.14,1.7,5.27,3.22,5.21,5.5-.1,3.12-3.09,3.71-6.72,3.73H136.32v4.91h17.34c14.83,0,16.09-6.23,16.12-9.73,0-3.66-1.26-6.82-8.28-10.59-3.21-1.73-5.81-3.25-7.82-4.49-1.8-1.11-2.31-2.37-1.9-3.58s1.75-1.82,4.12-1.82h12.74Zm-33.83,0H118.49c-3.78,0-6.52,0-9.28.91-3.89,1.22-6.36,3.87-6.55,7.22-.24,4.22,2.76,7.48,8.47,10.38,1.43.73,3,1.63,4.5,2.43,3.14,1.7,5.27,3.22,5.2,5.5-.09,3.12-3.09,3.71-6.72,3.73h-11.5v4.91h17.22c14.82,0,16.08-6.23,16.12-9.73,0-3.66-1.27-6.82-8.28-10.6-3.21-1.72-5.81-3.23-7.82-4.48-1.8-1.11-2.31-2.37-1.9-3.59s1.75-1.81,4.11-1.81h12.75ZM49.75,80.58H62.89V45.5H49.12a2.82,2.82,0,0,0-3,2.09L37.64,67.34l-8.53-19.8c-.64-1.51-1.33-2-3.67-2H10V80.58h8.06V54.2L29.24,80.58H38.7L49.76,54.2ZM85.52,50.4A1.51,1.51,0,0,0,83.81,52l0,8.29H100v4.88H83.79V75.73h16.78v4.86H67.88V50.5c0-3.21,1.87-5,5-5h27.51v4.9Z" transform="translate(-10 -13.33)"/>
      <path class="cls-1" d="M284,13.33a26,26,0,1,0,26,26,26,26,0,0,0-26-26" transform="translate(-10 -13.33)"/>
    </g>
    <path class="cls-3" d="M284,60.89,263.24,45.52h41.51Zm-2-43.08V41.56H263.23Zm3.94,0,18.8,23.75H286Z" transform="translate(-10 -13.33)"/>
  </g>
</svg>
